<svg width="220" height="38" viewBox="0 0 220 38" fill="none" xmlns="http://www.w3.org/2000/svg">
<path d="M50.6669 9.80221H67.06V14.3236H61.9125V31.0413H55.8608V14.3236H50.6669V9.80221ZM74.4566 31.0413H68.6135V14.1613H74.4566V31.0413ZM74.4334 9.1066C74.4334 9.50851 74.3561 9.88723 74.2015 10.2428C74.0469 10.5983 73.846 10.9074 73.5987 11.1702C73.3359 11.433 73.0267 11.6417 72.6712 11.7963C72.3311 11.9509 71.9679 12.0281 71.5814 12.0281C70.7621 12.0281 70.0665 11.7422 69.4946 11.1702C68.9381 10.6137 68.6599 9.92587 68.6599 9.1066C68.6599 8.7047 68.7372 8.33371 68.8917 7.99364C69.0309 7.65357 69.2318 7.35214 69.4946 7.08935C69.7574 6.84203 70.0665 6.64881 70.4221 6.50968C70.7776 6.35511 71.164 6.27782 71.5814 6.27782C72.3543 6.27782 73.0267 6.54833 73.5987 7.08935C74.1551 7.64584 74.4334 8.31825 74.4334 9.1066ZM86.6064 13.7671C87.2711 13.7671 87.9435 13.8058 88.6237 13.8831C89.2884 13.9604 89.9067 14.0454 90.4786 14.1381C91.1279 14.2463 91.7539 14.3623 92.3568 14.4859V19.0074C91.8776 18.9301 91.3365 18.8373 90.7337 18.7291C90.1308 18.6209 89.5202 18.5514 88.9019 18.5204C88.2836 18.4741 87.6808 18.4818 87.0934 18.5436C86.506 18.6055 85.9881 18.791 85.5399 19.1001C85.0761 19.3938 84.7051 19.8266 84.4269 20.3986C84.1486 20.9551 84.0095 21.7125 84.0095 22.6709C84.0095 23.6602 84.1409 24.4563 84.4037 25.0591C84.6819 25.6774 85.0452 26.1412 85.4935 26.4503C85.9263 26.7595 86.4364 26.9527 87.0238 27.03C87.6112 27.1073 88.2141 27.1227 88.8324 27.0764C89.4507 27.0145 90.0613 26.9141 90.6641 26.7749C91.267 26.6358 91.8312 26.5122 92.3568 26.4039V30.5776C91.7539 30.7631 91.1279 30.9099 90.4786 31.0181C89.9067 31.1263 89.2807 31.2191 88.6005 31.2964C87.9204 31.3582 87.2479 31.3891 86.5833 31.3891C85.7331 31.3891 84.7979 31.2654 83.7777 31.0181C82.7574 30.7553 81.8145 30.2993 80.9489 29.6501C80.0678 29.0009 79.3335 28.112 78.7461 26.9836C78.1587 25.8552 77.865 24.4176 77.865 22.6709C77.865 20.9087 78.1587 19.4634 78.7461 18.3349C79.3335 17.1911 80.0678 16.279 80.9489 15.5989C81.8145 14.9188 82.7574 14.4473 83.7777 14.1845C84.7979 13.9063 85.7408 13.7671 86.6064 13.7671ZM94.003 24.4563V20.1667H102.814V24.4563H94.003ZM104.228 9.80221H120.621V14.3236H115.474V31.0413H109.422V14.3236H104.228V9.80221ZM136.412 20.074V31.0413H131.751L131.171 28.4676C130.476 29.4878 129.711 30.2298 128.876 30.6935C128.026 31.1572 127.006 31.3891 125.815 31.3891C124.981 31.3891 124.177 31.2886 123.404 31.0877C122.631 30.8867 121.951 30.5853 121.363 30.1834C120.791 29.7815 120.328 29.2791 119.972 28.6762C119.632 28.0734 119.462 27.3701 119.462 26.5663C119.431 25.4842 119.586 24.5722 119.926 23.8302C120.266 23.1037 120.73 22.5008 121.317 22.0216C121.92 21.5424 122.608 21.1715 123.381 20.9087C124.169 20.6459 124.988 20.4681 125.838 20.3754C126.689 20.2826 127.554 20.2363 128.435 20.2363C129.316 20.2517 130.143 20.2826 130.916 20.329V20.2363C130.916 19.3861 130.692 18.76 130.244 18.3581C129.811 17.9562 129.262 17.7012 128.598 17.593C127.933 17.4848 127.206 17.4925 126.418 17.6162C125.63 17.7398 124.888 17.8944 124.192 18.0799C123.497 18.2808 122.901 18.4818 122.407 18.6827C121.912 18.8682 121.634 18.9842 121.572 19.0305V14.996C121.588 14.9806 121.796 14.911 122.198 14.7874C122.6 14.6482 123.102 14.5014 123.705 14.3468C124.308 14.2077 124.981 14.0686 125.723 13.9295C126.465 13.8058 127.191 13.744 127.902 13.744C128.613 13.744 129.456 13.829 130.429 13.999C131.403 14.1691 132.331 14.4859 133.212 14.9497C134.108 15.4134 134.866 16.0626 135.484 16.8974C136.102 17.7166 136.412 18.7755 136.412 20.074ZM130.893 24.1316V23.5056C130.167 23.5056 129.456 23.5133 128.76 23.5288C128.049 23.5442 127.407 23.6061 126.836 23.7143C126.264 23.8379 125.808 24.0466 125.467 24.3403C125.112 24.634 124.934 25.0591 124.934 25.6156C124.934 26.2185 125.12 26.6899 125.491 27.03C125.862 27.3701 126.271 27.5401 126.72 27.5401C127.338 27.5401 127.894 27.4551 128.389 27.285C128.899 27.0995 129.34 26.8522 129.711 26.5431C130.082 26.2339 130.368 25.8707 130.569 25.4533C130.785 25.0514 130.893 24.6108 130.893 24.1316ZM147.727 13.7671C148.407 13.7671 149.079 13.8058 149.744 13.8831C150.409 13.9604 151.027 14.0454 151.599 14.1381C152.248 14.2463 152.874 14.3623 153.477 14.4859V19.0074C152.998 18.9301 152.457 18.8373 151.854 18.7291C151.251 18.6209 150.641 18.5514 150.022 18.5204C149.404 18.4741 148.801 18.4818 148.214 18.5436C147.626 18.6055 147.108 18.791 146.66 19.1001C146.212 19.3938 145.841 19.8266 145.547 20.3986C145.269 20.9551 145.13 21.7125 145.13 22.6709C145.13 23.6602 145.269 24.4563 145.547 25.0591C145.81 25.6774 146.166 26.1412 146.614 26.4503C147.062 26.7595 147.572 26.9527 148.144 27.03C148.732 27.1073 149.334 27.1227 149.953 27.0764C150.571 27.0145 151.182 26.9141 151.784 26.7749C152.387 26.6358 152.952 26.5122 153.477 26.4039V30.5776C152.874 30.7631 152.248 30.9099 151.599 31.0181C151.027 31.1263 150.401 31.2191 149.721 31.2964C149.041 31.3582 148.368 31.3891 147.704 31.3891C146.853 31.3891 145.918 31.2654 144.898 31.0181C143.893 30.7553 142.95 30.2993 142.069 29.6501C141.188 29.0009 140.454 28.112 139.866 26.9836C139.295 25.8552 139.009 24.4176 139.009 22.6709C139.009 20.9087 139.295 19.4634 139.866 18.3349C140.454 17.1911 141.188 16.279 142.069 15.5989C142.95 14.9188 143.893 14.4473 144.898 14.1845C145.918 13.9063 146.861 13.7671 147.727 13.7671ZM155.123 24.4563V20.1667H163.934V24.4563H155.123ZM165.349 9.80221H181.742V14.3236H176.594V31.0413H170.543V14.3236H165.349V9.80221ZM190.414 13.744C191.388 13.744 192.462 13.8754 193.637 14.1381C194.796 14.4164 195.878 14.8956 196.883 15.5757C197.903 16.2559 198.745 17.1679 199.41 18.3118C200.075 19.4556 200.407 20.9087 200.407 22.6709C200.407 24.4176 200.075 25.8552 199.41 26.9836C198.745 28.112 197.903 29.0009 196.883 29.6501C195.878 30.2993 194.796 30.7553 193.637 31.0181C192.462 31.2654 191.388 31.3891 190.414 31.3891C189.44 31.3891 188.381 31.2654 187.237 31.0181C186.093 30.7553 185.027 30.2993 184.037 29.6501C183.048 29.0009 182.221 28.112 181.556 26.9836C180.892 25.8552 180.559 24.4176 180.559 22.6709C180.559 21.4961 180.714 20.4681 181.023 19.587C181.332 18.6905 181.742 17.9176 182.252 17.2684C182.762 16.6037 183.357 16.0472 184.037 15.5989C184.717 15.1352 185.421 14.7719 186.147 14.5091C186.874 14.2309 187.608 14.0377 188.35 13.9295C189.077 13.8058 189.764 13.744 190.414 13.744ZM190.414 27.3314C191.604 27.3314 192.547 26.9913 193.242 26.3112C193.938 25.6156 194.286 24.4022 194.286 22.6709C194.286 20.9087 193.946 19.6566 193.266 18.9146C192.585 18.1726 191.635 17.8016 190.414 17.8016C189.208 17.8016 188.28 18.1726 187.631 18.9146C186.997 19.6566 186.681 20.9087 186.681 22.6709C186.681 24.4022 186.997 25.6156 187.631 26.3112C188.28 26.9913 189.208 27.3314 190.414 27.3314ZM212.789 31.3891C210.733 31.3891 209.033 31.1263 207.688 30.6008C206.343 30.0752 205.276 29.395 204.488 28.5603C203.7 27.7256 203.151 26.7827 202.842 25.7315C202.517 24.6804 202.355 23.637 202.355 22.6013C202.355 21.5656 202.517 20.5222 202.842 19.4711C203.151 18.42 203.661 17.4693 204.372 16.6191C205.068 15.7535 205.987 15.0579 207.131 14.5323C208.26 14.0067 209.636 13.744 211.259 13.744C212.928 13.744 214.327 14.0067 215.455 14.5323C216.568 15.0579 217.465 15.7535 218.145 16.6191C218.81 17.4693 219.281 18.42 219.559 19.4711C219.853 20.5222 220 21.5656 220 22.6013V24.2244H208.314C208.329 24.4872 208.43 24.8041 208.615 25.175C208.801 25.5615 209.087 25.9248 209.473 26.2648C209.86 26.5894 210.362 26.8754 210.98 27.1227C211.599 27.3546 212.348 27.4705 213.229 27.4705C214.064 27.4705 214.822 27.401 215.502 27.2619C216.182 27.1227 216.762 26.9682 217.241 26.7981C217.797 26.5817 218.284 26.3421 218.702 26.0793V30.0443C218.702 30.0597 218.531 30.137 218.191 30.2761C217.851 30.4153 217.411 30.5698 216.87 30.7399C216.313 30.8945 215.68 31.0413 214.968 31.1804C214.242 31.3195 213.515 31.3891 212.789 31.3891ZM208.314 20.9087H214.737C214.737 20.5377 214.682 20.1512 214.574 19.7493C214.466 19.332 214.281 18.9533 214.018 18.6132C213.755 18.2577 213.423 17.9717 213.021 17.7553C212.603 17.5234 212.093 17.4075 211.49 17.4075C210.888 17.4075 210.377 17.5234 209.96 17.7553C209.543 17.9717 209.218 18.2577 208.986 18.6132C208.754 18.9533 208.584 19.332 208.476 19.7493C208.368 20.1512 208.314 20.5377 208.314 20.9087Z" fill="white"/>
<path d="M37.6669 13.0386V11.5898H26.0771V0H24.6284V11.5898H13.0386V0H11.5898V11.5898H0V13.0386H11.5898V24.6284H0V26.0771H11.5898V37.6669H13.0386V26.0771H24.6284V37.6669H26.0771V26.0771H37.6669V24.6284H26.0771V13.0386H37.6669ZM24.6284 24.6284H13.0386V13.0386H24.6284V24.6284Z" fill="white"/>
<path d="M10.1411 18.8335C10.1411 17.6808 9.6832 16.5753 8.86813 15.7603C8.05306 14.9452 6.94759 14.4873 5.79491 14.4873C4.64223 14.4873 3.53676 14.9452 2.72169 15.7603C1.90663 16.5753 1.44873 17.6808 1.44873 18.8335C1.44873 19.9861 1.90663 21.0916 2.72169 21.9067C3.53676 22.7218 4.64223 23.1797 5.79491 23.1797C6.94759 23.1797 8.05306 22.7218 8.86813 21.9067C9.6832 21.0916 10.1411 19.9861 10.1411 18.8335V18.8335ZM2.89745 18.8335C2.89745 17.2355 4.19696 15.936 5.79491 15.936C7.39431 15.936 8.69237 17.2355 8.69237 18.8335C8.69237 20.4314 7.39431 21.7309 5.79491 21.7309C4.19696 21.7309 2.89745 20.4314 2.89745 18.8335ZM31.872 10.1411C33.0247 10.1411 34.1302 9.6832 34.9452 8.86813C35.7603 8.05306 36.2182 6.94759 36.2182 5.79491C36.2182 4.64223 35.7603 3.53677 34.9452 2.7217C34.1302 1.90663 33.0247 1.44873 31.872 1.44873C30.7193 1.44873 29.6139 1.90663 28.7988 2.7217C27.9837 3.53677 27.5258 4.64223 27.5258 5.79491C27.5258 6.94759 27.9837 8.05306 28.7988 8.86813C29.6139 9.6832 30.7193 10.1411 31.872 10.1411ZM31.872 2.89746C33.47 2.89746 34.7695 4.19697 34.7695 5.79491C34.7695 7.39286 33.47 8.69237 31.872 8.69237C30.2741 8.69237 28.9746 7.39286 28.9746 5.79491C28.9746 4.19697 30.2741 2.89746 31.872 2.89746ZM15.7607 22.9305L18.8335 19.8577L21.9062 22.9305L22.9305 21.9062L19.8577 18.8335L22.9305 15.7607L21.9062 14.7365L18.8335 17.8092L15.7607 14.7365L14.7365 15.7607L17.8092 18.8335L14.7365 21.9062L15.7607 22.9305ZM34.9448 27.775L31.872 30.8478L28.7993 27.775L27.775 28.7993L30.8478 31.872L27.775 34.9448L28.7993 35.969L31.872 32.8963L34.9448 35.969L35.969 34.9448L32.8963 31.872L35.969 28.7993L34.9448 27.775Z" fill="white"/>
</svg>
